<?xml version="1.0" encoding="UTF-8" standalone="no"?>
<!-- Created with Inkscape (http://www.inkscape.org/) -->

<svg
   width="5579.0508"
   height="1181.9885"
   viewBox="0 0 1476.1239 312.73443"
   version="1.1"
   id="svg5"
   inkscape:version="1.2 (dc2aedaf03, 2022-05-15)"
   sodipodi:docname="vivumlab_title.svg"
   inkscape:export-filename="/home/voryzen/Downloads/VivumLab/website/static/logo250x53.png"
   inkscape:export-xdpi="4.3018069"
   inkscape:export-ydpi="4.3018069"
   xml:space="preserve"
   xmlns:inkscape="http://www.inkscape.org/namespaces/inkscape"
   xmlns:sodipodi="http://sodipodi.sourceforge.net/DTD/sodipodi-0.dtd"
   xmlns="http://www.w3.org/2000/svg"
   xmlns:svg="http://www.w3.org/2000/svg"><sodipodi:namedview
     id="namedview7"
     pagecolor="#000000"
     bordercolor="#666666"
     borderopacity="1.0"
     inkscape:pageshadow="2"
     inkscape:pageopacity="0"
     inkscape:pagecheckerboard="true"
     inkscape:document-units="mm"
     showgrid="false"
     showborder="true"
     inkscape:snap-others="false"
     inkscape:snap-to-guides="false"
     inkscape:snap-grids="false"
     inkscape:snap-nodes="true"
     inkscape:snap-global="false"
     inkscape:object-paths="true"
     inkscape:snap-intersection-paths="true"
     inkscape:zoom="0.2240282"
     inkscape:cx="2754.1176"
     inkscape:cy="540.11058"
     inkscape:window-width="1920"
     inkscape:window-height="1007"
     inkscape:window-x="0"
     inkscape:window-y="0"
     inkscape:window-maximized="1"
     inkscape:current-layer="layer2"
     units="px"
     height="17px"
     width="1400px"
     fit-margin-top="30"
     fit-margin-left="30"
     fit-margin-right="30"
     fit-margin-bottom="30"
     lock-margins="true"
     inkscape:showpageshadow="2"
     inkscape:deskcolor="#000000"><inkscape:grid
       type="xygrid"
       id="grid208126"
       originx="702.54871"
       originy="-19.026931" /></sodipodi:namedview><defs
     id="defs2"><inkscape:path-effect
       effect="offset"
       id="path-effect73468"
       is_visible="true"
       lpeversion="1"
       linejoin_type="miter"
       unit="px"
       offset="15"
       miter_limit="4"
       attempt_force_join="false"
       update_on_knot_move="true" /><inkscape:path-effect
       effect="offset"
       id="path-effect73442"
       is_visible="true"
       lpeversion="1"
       linejoin_type="miter"
       unit="px"
       offset="15"
       miter_limit="4"
       attempt_force_join="false"
       update_on_knot_move="true" /><inkscape:path-effect
       effect="offset"
       id="path-effect73238"
       is_visible="true"
       lpeversion="1"
       linejoin_type="miter"
       unit="px"
       offset="10"
       miter_limit="4"
       attempt_force_join="false"
       update_on_knot_move="true" /><inkscape:path-effect
       effect="offset"
       id="path-effect73233"
       is_visible="true"
       lpeversion="1"
       linejoin_type="miter"
       unit="px"
       offset="10"
       miter_limit="4"
       attempt_force_join="false"
       update_on_knot_move="true" /><inkscape:path-effect
       effect="offset"
       id="path-effect73050"
       is_visible="true"
       lpeversion="1"
       linejoin_type="miter"
       unit="px"
       offset="28.4"
       miter_limit="4"
       attempt_force_join="false"
       update_on_knot_move="true" /><inkscape:path-effect
       effect="offset"
       id="path-effect72141"
       is_visible="true"
       lpeversion="1"
       linejoin_type="miter"
       unit="px"
       offset="4.1"
       miter_limit="4"
       attempt_force_join="false"
       update_on_knot_move="true" /><inkscape:path-effect
       effect="offset"
       id="path-effect71695"
       is_visible="true"
       lpeversion="1"
       linejoin_type="miter"
       unit="mm"
       offset="4.4"
       miter_limit="4"
       attempt_force_join="false"
       update_on_knot_move="true" /><inkscape:path-effect
       effect="offset"
       id="path-effect71452"
       is_visible="true"
       lpeversion="1"
       linejoin_type="miter"
       unit="mm"
       offset="4.7"
       miter_limit="4"
       attempt_force_join="false"
       update_on_knot_move="true" /><inkscape:path-effect
       effect="offset"
       id="path-effect70028"
       is_visible="true"
       lpeversion="1"
       linejoin_type="miter"
       unit="mm"
       offset="3.9"
       miter_limit="4"
       attempt_force_join="false"
       update_on_knot_move="true" /><inkscape:path-effect
       effect="offset"
       id="path-effect69918"
       is_visible="true"
       lpeversion="1"
       linejoin_type="miter"
       unit="mm"
       offset="7"
       miter_limit="4"
       attempt_force_join="false"
       update_on_knot_move="true" /><rect
       x="-2288.1045"
       y="-215.96259"
       width="1118.4025"
       height="544.79791"
       id="rect11181" /><rect
       x="-1543.3844"
       y="673.27875"
       width="3104.9883"
       height="890.48584"
       id="rect3227" /></defs><g
     inkscape:groupmode="layer"
     id="layer2"
     inkscape:label="Flask"><g
       inkscape:label="Layer 1"
       id="layer1"
       transform="matrix(0.93872841,0,0,0.93872841,764.39776,36.779321)"><path
         id="path431"
         style="fill:#19647d;fill-opacity:1;stroke-width:1.94322"
         sodipodi:type="inkscape:offset"
         inkscape:radius="0"
         inkscape:original="M 702.47266 60.240234 C 500.21216 60.240234 508.07778 59.774292 490.08984 72.804688 C 476.83709 82.404929 471.39576 92.461314 470.56641 108.88477 C 469.73516 125.34603 473.47942 135.83482 484.57227 148.11328 C 490.19867 154.34103 494.29233 156.6264 505.68164 159.89844 C 513.45247 162.13092 524.31417 164.51942 529.82031 165.20703 L 539.83203 166.45703 L 541.26172 193.01953 C 542.0474 207.62923 542.09697 232.91808 541.37305 249.2168 L 540.05664 278.85156 L 701.42188 278.85156 L 862.78711 278.85156 L 862.78711 222.67969 L 862.78711 166.50977 L 872.99023 165.12305 C 900.18447 161.42899 921.5697 149.49126 930.3418 133.10938 C 934.2333 125.84191 934.87598 122.38589 934.14258 112.64844 C 933.01361 97.6594 927.66225 87.310504 915.29297 76.189453 C 896.45632 59.253679 909.61375 60.240234 702.47266 60.240234 z "
         d="m 702.47266,60.240234 c -202.2605,0 -194.39488,-0.465942 -212.38282,12.564454 -13.25275,9.600241 -18.69408,19.656626 -19.52343,36.080082 -0.83125,16.46126 2.91301,26.95005 14.00586,39.22851 5.6264,6.22775 9.72006,8.51312 21.10937,11.78516 7.77083,2.23248 18.63253,4.62098 24.13867,5.30859 l 10.01172,1.25 1.42969,26.5625 c 0.78568,14.6097 0.83525,39.89855 0.11133,56.19727 l -1.31641,29.63476 h 161.36524 161.36523 v -56.17187 -56.16992 l 10.20312,-1.38672 c 27.19424,-3.69406 48.57947,-15.63179 57.35157,-32.01367 3.8915,-7.26747 4.53418,-10.72349 3.80078,-20.46094 C 933.01361,97.6594 927.66225,87.310504 915.29297,76.189453 896.45632,59.253679 909.61375,60.240234 702.47266,60.240234 Z"
         transform="matrix(0.27180941,0,0,0.28768726,-65.908992,-31.455534)" /><g
         id="g346"
         transform="translate(-28.387442,-3.5036768)"
         style="fill:#19647d;fill-opacity:1"><path
           style="fill:#19647d;fill-opacity:1;stroke-width:0.282222"
           d="m 136.08746,232.46374 c 1e-5,-24.52511 0.0333,-34.51636 0.074,-22.20278 0.0407,12.31358 0.0407,32.37958 -1e-5,44.59111 -0.0407,12.21153 -0.074,2.13679 -0.074,-22.38833 z m 48.89622,36.80379 c 0.26837,-0.34417 0.36814,-4.41294 0.4256,-17.35667 l 0.0751,-16.90712 0.0683,16.96935 c 0.0639,15.87288 0.0364,16.99435 -0.4256,17.35667 -0.43705,0.34276 -0.45354,0.33559 -0.14335,-0.0622 z m -36.20027,-20.15267 c 3e-5,-10.86556 0.0351,-15.2695 0.078,-9.78654 0.0429,5.48296 0.0428,14.37296 -5e-5,19.75556 -0.0429,5.3826 -0.0779,0.89653 -0.0779,-9.96902 z m 0.004,-81.1389 c 0,-26.77584 0.0332,-37.72959 0.0737,-24.34167 0.0405,13.38792 0.0405,35.29542 0,48.68334 -0.0405,13.38792 -0.0737,2.43417 -0.0737,-24.34167 z m 36.68544,25.54111 c 2e-5,-12.41778 0.0347,-17.45657 0.0771,-11.19731 0.0424,6.25926 0.0424,16.41926 -4e-5,22.57778 -0.0424,6.15852 -0.0771,1.03731 -0.0771,-11.38047 z m -49.52342,-49.7276 c -0.0776,-14.31151 -0.0452,-25.92499 0.0721,-25.80773 0.11724,0.11726 0.18072,11.82668 0.14108,26.02094 l -0.0721,25.80772 z"
           id="path360" /><path
           style="fill:#19647d;fill-opacity:1;stroke-width:0.282222"
           d="m 173.34087,217.36485 c 0,-25.06839 0.0333,-35.32364 0.0739,-22.78944 0.0406,12.53419 0.0406,33.04469 0,45.57889 -0.0407,12.53419 -0.0739,2.27894 -0.0739,-22.78945 z M 195.91242,34.484837 c 0,-8.304389 0.036,-11.70164 0.08,-7.549445 0.044,4.152195 0.044,10.946696 0,15.09889 -0.044,4.152195 -0.08,0.754945 -0.08,-7.549445 z m -65.5365,-43.6738697 c 12.5342,-0.040654 33.0447,-0.040654 45.57889,0 12.5342,0.040654 2.27895,0.07392 -22.78944,0.07392 -25.06839,0 -35.32364,-0.033266 -22.78945,-0.07392 z"
           id="path358" /><path
           style="fill:#19647d;fill-opacity:1;stroke-width:0.282222"
           d="m 185.75344,252.07819 c 0,-9.39095 0.0356,-13.2327 0.079,-8.53722 0.0435,4.69547 0.0435,12.37897 0,17.07444 -0.0434,4.69547 -0.079,0.85372 -0.079,-8.53722 z m -36.68345,-83.11445 c 1e-5,-27.00867 0.0332,-38.01587 0.0737,-24.46045 0.0405,13.55543 0.0405,35.65343 -1e-5,49.10667 -0.0405,13.45325 -0.0737,2.36245 -0.0737,-24.64622 z m 36.68542,24.55333 c 2e-5,-12.41778 0.0347,-17.45657 0.0771,-11.19731 0.0424,6.25926 0.0424,16.41926 -4e-5,22.57778 -0.0424,6.15852 -0.0771,1.03731 -0.0771,-11.38047 z"
           id="path356" /><path
           style="fill:#19647d;fill-opacity:1;stroke-width:0.282222"
           d="m 135.80523,232.88708 c 0,-24.44751 0.0333,-34.44876 0.074,-22.22501 0.0407,12.22376 0.0407,32.22626 0,44.45001 -0.0407,12.22375 -0.074,2.2225 -0.074,-22.225 z m 13.54268,16.65111 c 0,-10.94317 0.035,-15.41992 0.0779,-9.94834 0.0428,5.47159 0.0428,14.42509 0,19.89667 -0.0428,5.47159 -0.0779,0.99484 -0.0779,-9.94833 z m 23.21938,13.80101 c 0.27707,-0.35527 0.36729,-10.13923 0.42419,-46.00223 l 0.0723,-45.55101 0.0697,45.61489 c 0.0659,43.15476 0.0431,45.63577 -0.42419,46.00224 -0.43749,0.3431 -0.4537,0.33579 -0.14197,-0.0639 z m -23.21508,-95.92768 c 0,-26.93106 0.0332,-37.94831 0.0737,-24.48278 0.0405,13.46552 0.0405,35.50003 0,48.96556 -0.0405,13.46552 -0.0737,2.44827 -0.0737,-24.48278 z m -13.68466,-23.76316 c -0.0776,-14.07869 -0.0451,-25.50165 0.0721,-25.38438 0.11725,0.11728 0.18074,11.6362 0.14108,25.59761 l -0.0721,25.38437 z"
           id="path354" /><path
           style="fill:#19647d;fill-opacity:1;stroke-width:0.282222"
           d="m 185.97146,252.0763 -0.0683,-17.07634 7.97278,-7.90033 7.97278,-7.90033 -7.82956,7.90222 -7.82956,7.90222 -0.0749,17.07445 -0.0749,17.07445 z m 0.11983,-36.02849 c -0.26124,-0.26123 -0.23794,-44.90331 0.0235,-45.06495 0.11642,-0.072 0.17842,10.01704 0.13779,22.42001 -0.0406,12.40298 0.0215,22.55087 0.13799,22.55087 0.11654,0 2.30878,-2.06375 4.87166,-4.58611 l 4.65979,-4.58611 -4.65345,4.72722 c -4.67191,4.74597 -4.83096,4.8854 -5.17729,4.53907 z"
           id="path352" /><path
           style="fill:#19647d;fill-opacity:1;stroke-width:0.282222"
           d="m 153.09023,276.1332 -3.59477,-3.60276 0.0716,-77.18336 0.0716,-77.18335 0.07,77.19202 0.07,77.19202 3.49181,3.48341 c 3.78389,3.77484 4.05566,3.89803 5.24972,2.38004 0.31449,-0.3998 0.5718,-0.59408 0.5718,-0.43175 0,0.37635 -1.62795,1.7565 -2.07183,1.7565 -0.18436,0 -1.95285,-1.62125 -3.92997,-3.60277 z m -16.67005,3.13239 c -0.10348,-0.10346 -0.18815,-0.40541 -0.18815,-0.67098 0,-0.26558 -0.1905,-0.64096 -0.42333,-0.8342 -0.37356,-0.31002 -0.41514,-5.58148 -0.35366,-44.83732 l 0.0697,-44.48602 0.0723,44.42876 c 0.0601,36.90843 0.13709,44.50402 0.45497,44.87333 0.21046,0.24452 0.45217,0.73034 0.53714,1.07959 0.16362,0.6725 0.13429,0.75009 -0.16896,0.44684 z m 34.80741,-13.85237 c 0,-0.17571 0.127,-0.39799 0.28222,-0.49392 0.15522,-0.0959 0.28222,-0.40538 0.28222,-0.68766 0,-0.28228 0.1905,-0.67132 0.42334,-0.86456 0.58086,-0.48206 0.65054,-91.07232 0.0705,-91.72273 -0.30012,-0.33656 -0.27905,-0.33983 0.14111,-0.0219 0.70587,0.53412 0.77556,91.15951 0.0706,91.74462 -0.23283,0.19324 -0.42737,0.55804 -0.43231,0.81065 -0.0101,0.51534 -0.83769,1.73598 -0.83769,1.23549 z m 26.38778,-41.77215 7.33777,-7.41155 9.03112,0.0738 c 8.80781,0.0719 9.03178,0.0877 9.05885,0.63822 0.0212,0.42966 0,0.44651 -0.0902,0.0706 -0.10922,-0.4575 -0.77665,-0.49389 -9.05684,-0.49389 h -8.93893 l -7.33977,7.26722 -7.33978,7.26722 z m -62.91985,-55.31233 -0.47254,-0.77611 0.57968,0.66439 0.57968,0.6644 0.0736,-25.35884 0.0736,-25.35885 0.069,25.47056 c 0.0397,14.63752 -0.0372,25.47056 -0.18074,25.47056 -0.13736,0 -0.4624,-0.34925 -0.7223,-0.77611 z M 110.39908,34.484837 c 0,-8.304389 0.036,-11.70164 0.08,-7.549445 0.044,4.152195 0.044,10.946696 0,15.09889 -0.044,4.152195 -0.08,0.754945 -0.08,-7.549445 z"
           id="path350" /><path
           style="fill:#19647d;fill-opacity:1;stroke-width:0.282222"
           d="M 128.89425,291.00321 C 88.52403,289.5649 33.263612,282.40305 0.67109026,274.38526 -46.981507,262.66268 -43.085378,221.78765 11.217334,163.74263 14.920307,159.78446 34.205291,139.01996 54.07285,117.59929 l 36.122839,-38.946671 0.01707,-25.852255 0.01705,-25.852258 -2.441787,-0.187689 C 60.839488,24.688988 54.716665,-12.409804 79.6128,-22.774091 c 4.881587,-2.03221 -1.642818,-1.866632 73.55257,-1.866632 h 67.59222 l 2.39889,0.636665 c 28.1257,7.464561 24.40144,48.698755 -4.58611,50.776419 l -2.46945,0.176998 v 25.767574 25.767575 l 37.86,40.865172 c 20.82301,22.47584 39.08135,42.13517 40.57408,43.68739 35.05648,36.45345 51.03616,71.23402 41.69384,90.74865 -5.50353,11.49598 -16.32638,17.77196 -38.65352,22.41448 -56.67979,11.78555 -113.47626,16.76985 -168.68107,14.80301 z m 37.08776,-0.14912 c 0.24476,-0.0939 0.72304,-0.66543 1.06283,-1.27 0.33979,-0.60458 0.78198,-1.09923 0.98266,-1.09923 0.20067,0 0.58783,-0.34925 0.86035,-0.77611 0.27251,-0.42686 0.75169,-0.96066 1.06483,-1.18621 0.31315,-0.22558 0.90606,-0.76533 1.31758,-1.19945 0.41153,-0.43414 0.87913,-0.78934 1.03912,-0.78934 0.15999,0 0.57606,-0.41275 0.92462,-0.91722 0.34855,-0.50448 1.02395,-1.31635 1.50088,-1.80414 0.47694,-0.48779 0.99415,-1.02884 1.14938,-1.20229 0.81159,-0.90704 2.71581,-2.56746 2.94443,-2.56746 0.14448,0 0.55541,-0.41275 0.9132,-0.91723 0.35778,-0.50447 1.47768,-1.74512 2.48866,-2.75703 2.21677,-2.21874 3.10815,-3.30685 3.10815,-3.79405 0,-0.20063 0.1905,-0.5229 0.42333,-0.71614 0.36778,-0.30522 0.42334,-2.59749 0.42334,-17.46798 v -17.11663 l 9.38389,-9.3774 9.38388,-9.3774 8.96056,-2.8e-4 c 8.34517,-2.8e-4 8.96067,0.0336 8.96231,0.49359 0,0.27164 0.19143,0.85766 0.42333,1.30226 0.23187,0.4446 0.42158,0.9688 0.42158,1.16489 0,0.19608 0.1905,0.51461 0.42334,0.70785 0.23283,0.19323 0.42333,0.56334 0.42333,0.82246 0,0.25912 0.5715,1.03201 1.27,1.71754 0.6985,0.68553 1.27017,1.37872 1.27039,1.54043 0,0.44893 2.08035,2.6929 2.49584,2.6929 0.20122,0 0.96012,0.47677 1.68647,1.05948 2.09341,1.67943 5.19614,3.3411 5.68012,3.04199 0.13843,-0.0856 0.44334,0.0361 0.67762,0.27038 0.2755,0.27554 0.96892,0.42593 1.96373,0.42593 1.02266,0 1.65551,0.14182 1.88916,0.42333 0.49556,0.5971 5.57956,0.60427 6.36663,0.009 0.31129,-0.23546 1.1726,-0.41823 1.99494,-0.42334 0.95205,-0.006 1.57093,-0.15818 1.8091,-0.44515 0.19908,-0.2399 0.5413,-0.36737 0.76048,-0.28326 0.35478,0.13614 1.92873,-0.51954 4.05011,-1.68719 0.40098,-0.2207 1.20376,-0.849 1.78399,-1.39621 0.58022,-0.54722 1.21663,-0.99494 1.41421,-0.99494 0.43728,0 2.70499,-2.2457 2.70499,-2.67874 0,-0.17026 0.49812,-0.84374 1.1069,-1.49662 1.219,-1.30724 2.84421,-4.31872 2.84421,-5.27022 0,-0.3336 0.18646,-0.85306 0.41436,-1.15437 0.22789,-0.3013 0.41839,-1.13553 0.42333,-1.85383 0.006,-0.80727 0.17063,-1.44016 0.43231,-1.65733 0.60065,-0.49851 0.59331,-6.38377 -0.009,-7.18006 -0.23094,-0.30532 -0.41436,-1.14859 -0.41436,-1.905 0,-0.74644 -0.11077,-1.35717 -0.24615,-1.35717 -0.13539,0 -0.33184,-0.53594 -0.4366,-1.19098 -0.10474,-0.65505 -0.27974,-1.25839 -0.38885,-1.34077 -0.30742,-0.2321 -1.18618,-1.98876 -1.18618,-2.37124 0,-0.18794 -0.5715,-0.90259 -1.27,-1.58812 -0.6985,-0.68552 -1.27017,-1.37872 -1.27039,-1.54043 0,-0.47463 -2.09138,-2.69216 -2.54647,-2.70089 -0.22908,-0.004 -1.02771,-0.5759 -1.77475,-1.27 -0.74707,-0.69411 -1.52527,-1.26201 -1.72935,-1.26201 -0.20407,0 -0.52913,-0.1905 -0.72237,-0.42333 -0.19324,-0.23284 -0.57424,-0.42334 -0.84667,-0.42334 -0.27243,0 -0.65343,-0.1905 -0.84667,-0.42333 -0.19323,-0.23283 -0.7697,-0.42333 -1.28103,-0.42333 -0.51133,0 -0.97934,-0.14888 -1.03999,-0.33084 -0.0619,-0.18584 -0.87822,-0.38639 -1.86247,-0.45758 -0.9637,-0.0697 -1.82115,-0.23833 -1.90545,-0.37472 -0.21387,-0.34603 -5.97239,-0.31416 -6.18772,0.0343 -0.0959,0.15522 -0.84117,0.28222 -1.65605,0.28222 -0.86583,0 -1.70931,0.17221 -2.02946,0.41436 -0.3013,0.22789 -0.88802,0.41839 -1.30379,0.42333 -0.41577,0.005 -0.94643,0.19948 -1.17926,0.43231 -0.23283,0.23283 -0.60737,0.42333 -0.83227,0.42333 -0.22494,0 -0.56705,0.1905 -0.76028,0.42334 -0.19324,0.23283 -0.53174,0.42333 -0.75221,0.42333 -0.22047,0 -1.01185,0.5715 -1.75858,1.27 -0.74676,0.6985 -1.54065,1.27 -1.7642,1.27 -0.50775,0 -2.49835,2.0694 -2.49835,2.59723 0,0.21433 -0.5715,0.95058 -1.27,1.6361 -0.6985,0.68553 -1.27,1.45842 -1.27,1.71754 0,0.25912 -0.1905,0.62923 -0.42333,0.82246 -0.23283,0.19324 -0.42333,0.51177 -0.42333,0.70786 0,0.19608 -0.18971,0.72028 -0.42159,1.16488 -0.2319,0.44461 -0.4224,1.03062 -0.42333,1.30226 -0.003,0.46187 -0.71303,0.49389 -10.97386,0.49389 -9.40869,0 -11.02217,0.0603 -11.32345,0.42334 -0.19323,0.23283 -0.55704,0.42333 -0.80846,0.42333 -0.25142,0 -3.41087,2.95174 -7.021,6.55941 l -6.56381,6.55935 V 193.58538 171.0804 h 0.8265 c 0.45459,0 1.01701,-0.1905 1.24985,-0.42333 0.23283,-0.23283 0.67085,-0.42333 0.97338,-0.42333 0.30252,0 0.70814,-0.1905 0.90138,-0.42334 0.19323,-0.23283 0.52898,-0.42333 0.74611,-0.42333 0.21712,0 1.11593,-0.6985 1.99735,-1.55222 0.88142,-0.85372 1.74917,-1.55222 1.92835,-1.55222 0.50265,0 1.61971,-1.17918 2.21652,-2.33978 0.29608,-0.57579 0.63251,-1.04689 0.74761,-1.04689 0.11511,0 0.48935,-0.53975 0.83164,-1.19945 0.34229,-0.65969 0.79961,-1.301 1.01627,-1.42513 0.21666,-0.12413 0.39393,-0.45783 0.39393,-0.74156 0,-0.28372 0.1905,-0.67396 0.42333,-0.86719 0.23283,-0.19324 0.42333,-0.76474 0.42333,-1.27 0,-0.50527 0.1905,-1.07677 0.42334,-1.27 0.28213,-0.23416 0.42632,-0.88106 0.4323,-1.93956 0.005,-0.94674 0.17634,-1.80949 0.42334,-2.13605 0.58756,-0.77683 0.58064,-5.03061 -0.009,-5.51995 -0.28734,-0.23848 -0.42333,-0.8777 -0.42333,-1.98996 0,-1.08025 -0.14425,-1.78286 -0.42333,-2.06195 -0.23284,-0.23283 -0.42334,-0.79785 -0.42334,-1.2556 0,-0.45775 -0.1905,-0.99037 -0.42333,-1.1836 -0.23283,-0.19324 -0.42333,-0.51353 -0.42333,-0.71176 0,-0.38471 -1.86479,-3.27699 -2.27829,-3.53362 -0.13572,-0.0842 -0.5428,-0.71923 -0.90462,-1.41111 -0.36569,-0.69928 -1.02718,-1.4461 -1.48945,-1.6816 -0.45737,-0.233 -1.09889,-0.6775 -1.4256,-0.98777 -1.90123,-1.80563 -2.64667,-2.39859 -3.0154,-2.39859 -0.2272,0 -0.57119,-0.1905 -0.76442,-0.42333 -0.19324,-0.23283 -0.63774,-0.42333 -0.98778,-0.42333 -0.35004,0 -0.79454,-0.1905 -0.98778,-0.42334 -0.19323,-0.23283 -0.70123,-0.42333 -1.12889,-0.42333 -0.42765,0 -0.93565,-0.1905 -1.12889,-0.42333 -0.21717,-0.26168 -0.85006,-0.42676 -1.65733,-0.43231 -0.7183,-0.005 -1.55252,-0.19544 -1.85383,-0.42334 -0.3935,-0.29763 -1.31246,-0.41435 -3.26217,-0.41435 -1.94971,0 -2.86866,0.11672 -3.26217,0.41435 -0.31131,0.23546 -1.17261,0.41823 -1.99494,0.42334 -0.9329,0.006 -1.57195,0.1594 -1.79844,0.43231 -0.19324,0.23283 -0.70124,0.42333 -1.12889,0.42333 -0.42766,0 -0.93566,0.1905 -1.12889,0.42333 -0.19324,0.23284 -0.65329,0.42334 -1.02234,0.42334 -0.36905,0 -0.671,0.11844 -0.671,0.2632 0,0.14476 -0.28575,0.35332 -0.635,0.46347 -0.34925,0.11014 -1.41108,0.8807 -2.35963,1.71235 -0.94855,0.83165 -1.84554,1.51209 -1.99331,1.51209 -0.42083,0 -1.78539,1.53527 -1.78539,2.00875 0,0.2341 -0.37514,0.78505 -0.83364,1.22433 -0.45851,0.43927 -1.03597,1.22503 -1.28325,1.74613 -0.24727,0.5211 -0.57063,0.94745 -0.71857,0.94745 -0.14794,0 -0.26898,0.23845 -0.26898,0.52989 0,0.29144 -0.1905,0.68799 -0.42334,0.88123 -0.23283,0.19323 -0.42333,0.76473 -0.42333,1.27 0,0.50526 -0.1905,1.07676 -0.42333,1.27 -0.28214,0.23415 -0.42633,0.88105 -0.43231,1.93955 -0.005,0.94674 -0.17634,1.80949 -0.42334,2.13605 -0.28989,0.38328 -0.41435,1.27839 -0.41435,2.97995 0,1.70157 0.12446,2.59667 0.41435,2.97995 0.25015,0.33072 0.41792,1.19447 0.42334,2.17946 0.007,1.18392 0.12514,1.67622 0.43231,1.79409 0.27315,0.10481 0.42333,0.54152 0.42333,1.23095 0,0.68943 0.15018,1.12613 0.42333,1.23095 0.23284,0.0893 0.42334,0.34246 0.42334,0.56247 0,0.4555 2.04156,3.60247 2.68173,4.13376 0.23249,0.19295 0.42271,0.57798 0.42271,0.85562 0,0.53853 1.50838,1.96609 2.07741,1.96609 0.18742,0 1.03059,0.6985 1.8737,1.55222 0.84312,0.85372 1.74398,1.55222 2.00192,1.55222 0.25793,0 0.62707,0.1905 0.8203,0.42333 0.19324,0.23284 0.55804,0.42738 0.81067,0.43231 0.25263,0.005 0.70586,0.19544 1.00716,0.42334 0.30131,0.22789 0.85881,0.41435 1.23889,0.41435 1.51869,0 1.4402,-2.51534 1.44987,46.46156 0.008,40.08421 -0.0412,45.51544 -0.41436,45.82512 -0.23284,0.19324 -0.42334,0.51178 -0.42334,0.70784 0,0.62639 -0.73852,1.80696 -1.50995,2.41379 -0.41131,0.32351 -0.74782,0.76951 -0.74782,0.99108 0,0.22157 -0.1068,0.40284 -0.23733,0.40284 -0.13053,0 -0.84236,0.5715 -1.58183,1.27001 -0.73947,0.6985 -1.45005,1.27 -1.57906,1.27 -0.12901,0 -0.52007,0.508 -0.86903,1.12888 -0.34896,0.62089 -0.79865,1.12889 -0.99933,1.12889 -0.20067,0 -0.58783,0.34925 -0.86035,0.77611 -0.27252,0.42687 -0.75169,0.96348 -1.06484,1.19248 -0.31314,0.22902 -0.98633,0.83227 -1.49597,1.34055 -0.50965,0.50831 -1.03686,0.9242 -1.17157,0.9242 -0.13472,0 -0.50783,0.44554 -0.82913,0.99012 -1.2884,2.18369 -1.61999,2.07315 -5.55381,-1.85121 l -3.51331,-3.50489 v -77.12146 -77.12147 h 0.71548 c 0.39352,0 1.02852,-0.2051 1.41111,-0.45579 0.3826,-0.25068 0.69563,-0.38126 0.69563,-0.29016 0,0.4021 2.65601,-1.30101 3.96718,-2.54388 0.79307,-0.75176 1.69693,-1.46226 2.00857,-1.57889 0.66142,-0.24753 1.6213,-1.32455 1.63486,-1.83437 0.005,-0.1942 0.49915,-0.8292 1.09774,-1.41111 0.5986,-0.58191 1.43212,-1.78573 1.85227,-2.67516 0.42016,-0.88943 0.88291,-1.69067 1.02832,-1.78054 0.14542,-0.0899 0.2644,-0.57501 0.2644,-1.07809 0,-0.50307 0.15201,-1.06669 0.33781,-1.25249 0.18579,-0.18579 0.43053,-1.00494 0.54386,-1.82033 0.11333,-0.81539 0.34826,-2.11752 0.52207,-2.893632 0.33601,-1.500414 0.13228,-5.110601 -0.30361,-5.379994 -0.13941,-0.08616 -0.25347,-0.759883 -0.25347,-1.497166 0,-0.741759 -0.18507,-1.585209 -0.41436,-1.888344 -0.22789,-0.301306 -0.41839,-0.888009 -0.42333,-1.303782 -0.005,-0.415775 -0.17805,-0.925031 -0.38471,-1.131683 -0.20665,-0.206654 -0.46307,-0.723725 -0.56982,-1.149048 -0.10675,-0.425326 -0.31867,-0.773317 -0.47093,-0.773317 -0.15227,0 -0.27685,-0.227559 -0.27685,-0.505683 0,-0.278127 -0.5715,-1.066569 -1.27,-1.752095 -0.6985,-0.685526 -1.27,-1.46431 -1.27,-1.730629 0,-0.266319 -0.38632,-0.779628 -0.85848,-1.140683 -0.47216,-0.361056 -1.73525,-1.386716 -2.80687,-2.279244 -1.07162,-0.892528 -2.13025,-1.622778 -2.35252,-1.622778 -0.22227,0 -0.56223,-0.1905 -0.75546,-0.423333 -0.19324,-0.232834 -0.55804,-0.427372 -0.81067,-0.432308 -0.25263,-0.0049 -0.70586,-0.195439 -1.00716,-0.423334 -0.30131,-0.227897 -0.80931,-0.418397 -1.12889,-0.423333 -0.31958,-0.0049 -0.82758,-0.195439 -1.12889,-0.423333 -0.30131,-0.227898 -1.08054,-0.414359 -1.73163,-0.414359 -0.65109,0 -1.54756,-0.189718 -1.99217,-0.421595 -1.09257,-0.569815 -5.03973,-0.569815 -6.1323,0 -0.4446,0.231877 -1.35628,0.421595 -2.02595,0.421595 -0.706,0 -1.39545,0.17787 -1.64091,0.423333 -0.23284,0.232834 -0.72564,0.423334 -1.09511,0.423334 -0.36948,0 -0.9183,0.186461 -1.2196,0.414358 -0.30131,0.227895 -0.75453,0.418395 -1.00717,0.423334 -0.25263,0.0049 -0.61743,0.199474 -0.81066,0.432308 -0.19324,0.232833 -0.5701,0.423333 -0.83749,0.423333 -0.26738,0 -0.72808,0.273414 -1.02377,0.607588 -0.2957,0.334171 -1.23613,1.129645 -2.08985,1.767721 -2.3054,1.72306 -2.82223,2.219086 -2.82223,2.708651 0,0.243631 -0.5715,1.003848 -1.27,1.689374 -0.6985,0.685526 -1.27,1.458417 -1.27,1.717537 0,0.259119 -0.1905,0.629228 -0.42333,0.822463 -0.23283,0.193235 -0.42333,0.564385 -0.42333,0.824778 0,0.260395 -0.11916,0.594094 -0.26481,0.741556 -0.14564,0.147461 -0.30893,0.603317 -0.36287,1.013011 -0.0539,0.409696 -0.28403,0.968965 -0.51131,1.242822 -0.22728,0.273854 -0.41774,1.081651 -0.42324,1.795097 -0.005,0.71345 -0.16425,1.574583 -0.35278,1.913628 -0.44139,0.793804 -0.46339,6.064488 -0.0271,6.500752 0.1736,0.1736 0.35114,0.97343 0.39452,1.7774 0.0434,0.80397 0.21883,1.60173 0.38991,1.7728 0.17107,0.17108 0.31104,0.55807 0.31104,0.85999 0,0.98023 2.00837,4.75556 3.13538,5.89389 0.60387,0.60994 1.10252,1.25768 1.1081,1.43941 0.0156,0.50748 1.16612,1.71246 2.07276,2.17085 0.4471,0.22606 1.3361,0.92639 1.97556,1.55631 1.30586,1.28639 4.48351,2.95326 5.62994,2.95326 h 0.75381 v 25.31449 25.31449 l -0.87109,-1.18448 c -0.47909,-0.65147 -1.02913,-1.18449 -1.22231,-1.18449 -0.19317,0 -0.51364,-0.30347 -0.71214,-0.67438 -0.19851,-0.37091 -0.66813,-0.81436 -1.04361,-0.98544 -0.37547,-0.17108 -0.94556,-0.75661 -1.26687,-1.30117 -0.3213,-0.54457 -0.73826,-0.99012 -0.92657,-0.99012 -0.37621,0 -1.57741,-1.49568 -1.57741,-1.96413 0,-0.16151 -0.13955,-0.29365 -0.31011,-0.29365 -0.17055,0 -0.6468,-0.35153 -1.05833,-0.78118 -0.41153,-0.42964 -1.09484,-1.00234 -1.51847,-1.27265 -0.42363,-0.27032 -0.96664,-0.87129 -1.20669,-1.3355 -0.24005,-0.4642 -0.60216,-0.844 -0.8047,-0.844 -0.20253,0 -0.77866,-0.5715 -1.28029,-1.27 -0.50162,-0.6985 -1.06821,-1.27 -1.25908,-1.27 -0.19087,0 -0.90792,-0.5715 -1.59345,-1.27 -0.68552,-0.6985 -1.45841,-1.27001 -1.71753,-1.27001 -0.25912,0 -0.62923,-0.1905 -0.82247,-0.42333 -0.30127,-0.36301 -1.91475,-0.42333 -11.32344,-0.42333 -10.397515,0 -10.972111,-0.0267 -10.972111,-0.51051 0,-0.28077 -0.186462,-0.75702 -0.414359,-1.05833 -0.227895,-0.3013 -0.418395,-0.81803 -0.423333,-1.14827 -0.0049,-0.33025 -0.199475,-0.75855 -0.432308,-0.95178 -0.232834,-0.19324 -0.423334,-0.51831 -0.423334,-0.72239 0,-0.20407 -0.567904,-0.98227 -1.262007,-1.72933 -0.694106,-0.74705 -1.265606,-1.56924 -1.27,-1.82708 -0.0077,-0.45212 -1.513282,-1.93009 -1.966141,-1.93009 -0.12183,0 -0.969337,-0.69376 -1.883348,-1.54168 -0.91401,-0.84793 -1.801673,-1.54643 -1.972581,-1.55222 -0.170908,-0.006 -0.907881,-0.32805 -1.637713,-0.7161 -0.729829,-0.38806 -1.622196,-0.70556 -1.983032,-0.70556 -0.360835,0 -0.814165,-0.1905 -1.0074,-0.42333 -0.230737,-0.27802 -0.860422,-0.42333 -1.834445,-0.42333 -0.974022,0 -1.603708,-0.14532 -1.834444,-0.42334 -0.498715,-0.60091 -6.138791,-0.60821 -6.931059,-0.009 -0.301306,0.22789 -1.13553,0.41839 -1.85383,0.42333 -0.807272,0.006 -1.440164,0.17064 -1.657334,0.43231 -0.193234,0.23283 -0.655009,0.42333 -1.026162,0.42333 -0.371156,0 -0.895356,0.12255 -1.16489,0.27233 -0.269533,0.14977 -1.072004,0.52424 -1.783269,0.83215 -0.711262,0.3079 -1.790762,1.00104 -2.398889,1.54031 -0.608124,0.53926 -1.803862,1.53744 -2.657198,2.21816 -0.853336,0.68072 -1.59856,1.48193 -1.656052,1.78046 -0.05749,0.29853 -0.579388,1.00362 -1.159772,1.56686 -1.036049,1.00545 -1.982657,2.5469 -1.982657,3.22854 0,0.18998 -0.1905,0.50352 -0.423333,0.69675 -0.232833,0.19324 -0.423333,0.76474 -0.423333,1.27 0,0.50527 -0.1905,1.07677 -0.423334,1.27 -0.27802,0.23074 -0.423333,0.86042 -0.423333,1.83445 0,0.97402 -0.145313,1.6037 -0.423333,1.83444 -0.597022,0.49548 -0.589794,5.82397 0.009,6.61561 0.227898,0.3013 0.414359,1.143 0.414359,1.87044 0,0.83136 0.157237,1.45311 0.423333,1.67395 0.232834,0.19324 0.423334,0.67669 0.423334,1.07434 0,0.75493 0.98918,3.03934 1.435529,3.3152 0.141794,0.0876 0.258013,0.37408 0.258267,0.63656 2.57e-4,0.26248 0.508257,0.95503 1.128889,1.53899 0.620635,0.58396 1.128426,1.19893 1.128426,1.3666 0,0.55064 1.047629,1.65154 2.564711,2.69511 0.820389,0.56433 1.796734,1.38866 2.169651,1.83185 0.37292,0.44319 0.905197,0.8058 1.182836,0.8058 0.277639,0 0.662901,0.1905 0.856135,0.42333 0.193235,0.23283 0.558035,0.42737 0.810667,0.43231 0.252634,0.005 0.705857,0.19544 1.007163,0.42333 0.301306,0.2279 0.872806,0.4184 1.27,0.42333 0.397194,0.005 0.968694,0.19544 1.27,0.42334 0.301306,0.22789 1.087561,0.41436 1.747233,0.41436 0.659671,0 1.277893,0.127 1.373826,0.28222 0.230356,0.37272 6.542978,0.37272 6.773334,0 0.09593,-0.15522 0.777655,-0.28222 1.514938,-0.28222 0.741759,0 1.585208,-0.18508 1.888343,-0.41436 0.301306,-0.2279 0.73833,-0.41918 0.971163,-0.42507 0.232834,-0.006 0.749297,-0.18082 1.147699,-0.38873 0.398402,-0.20791 1.065152,-0.46354 1.481667,-0.56808 0.416515,-0.10454 0.757301,-0.31465 0.757301,-0.46692 0,-0.15226 0.216205,-0.27684 0.480452,-0.27684 0.264251,0 0.867501,-0.373 1.340556,-0.82888 0.473058,-0.45588 1.685603,-1.44235 2.694548,-2.19217 1.052525,-0.7822 1.870354,-1.61254 1.918687,-1.94802 0.04634,-0.3216 0.649586,-1.13957 1.340556,-1.8177 0.690973,-0.67814 1.256312,-1.44695 1.256312,-1.70847 0,-0.26152 0.174605,-0.54249 0.388013,-0.62438 0.213406,-0.0819 0.45794,-0.50823 0.543411,-0.94742 0.08547,-0.43919 0.322941,-1.27477 0.52771,-1.85685 l 0.372313,-1.05834 h 8.932822 8.93282 l 0.8759,0.9976 c 0.48175,0.54868 0.8759,1.18682 0.8759,1.4181 0,0.23127 0.28575,0.53137 0.635,0.66688 0.80172,0.31107 3.46631,2.82149 3.69277,3.47909 0.0935,0.27164 0.34068,0.49389 0.54919,0.49389 0.39324,0 1.37429,1.18433 1.69491,2.04611 0.10106,0.27164 0.32292,0.49389 0.49301,0.49389 0.49078,0 3.09205,2.32218 3.53419,3.155 0.22078,0.41586 0.63163,0.82918 0.91302,0.91849 0.28138,0.0893 0.82252,0.66639 1.20253,1.28241 0.38002,0.61602 0.84222,1.12345 1.02712,1.12762 0.43383,0.01 3.0088,2.49555 3.44298,3.3237 0.18311,0.34925 0.49507,0.635 0.69325,0.635 0.37772,0 1.36183,1.20134 1.67613,2.04611 0.10106,0.27164 0.37328,0.49389 0.60494,0.49389 1.6878,0 1.57208,-3.36689 1.57208,45.73866 0,39.21425 0.0503,44.54511 0.42333,44.85468 0.23283,0.19324 0.42333,0.54066 0.42333,0.77205 0,0.23137 2.69875,3.13179 5.99722,6.44536 l 5.99723,6.02469 8.65525,0.0113 c 4.76039,0.006 8.85551,-0.0657 9.10028,-0.1596 z m 75.51891,-72.92103 c -0.23283,-0.13489 -0.61383,-0.32291 -0.84666,-0.4178 -1.54226,-0.6286 -3.38667,-2.25745 -3.38667,-2.99088 0,-0.26239 -0.1905,-0.63518 -0.42333,-0.82842 -0.23284,-0.19323 -0.42334,-0.57423 -0.42334,-0.84666 0,-0.27244 -0.1905,-0.65344 -0.42333,-0.84667 -0.31375,-0.26038 -0.42333,-0.9545 -0.42333,-2.68111 0,-1.72662 0.10958,-2.42073 0.42333,-2.68111 0.23283,-0.19324 0.42333,-0.57424 0.42333,-0.84667 0,-0.27243 0.1905,-0.65343 0.42334,-0.84667 0.23283,-0.19323 0.42706,-0.55803 0.4316,-0.81066 0.0166,-0.92061 2.69559,-3.14045 3.79005,-3.14045 0.20125,0 0.524,-0.1905 0.71724,-0.42333 0.26605,-0.32059 0.98633,-0.42333 2.9677,-0.42333 2.06531,0 2.65058,0.0892 2.77879,0.42333 0.0893,0.23283 0.42492,0.42333 0.74569,0.42333 1.11585,0 3.95004,2.24239 3.95004,3.12525 0,0.26099 0.1905,0.63263 0.42333,0.82586 0.23283,0.19324 0.42333,0.58229 0.42333,0.86457 0,0.28228 0.127,0.59172 0.28223,0.68766 0.1557,0.0962 0.28222,1.36145 0.28222,2.82222 0,1.46077 -0.12652,2.72599 -0.28222,2.82222 -0.15523,0.0959 -0.28223,0.40538 -0.28223,0.68766 0,0.28227 -0.1905,0.67133 -0.42333,0.86456 -0.23283,0.19324 -0.42333,0.56487 -0.42333,0.82586 0,2.30746 -8.15329,4.90086 -10.72445,3.41124 z M 69.345365,166.14152 c -0.193235,-0.23284 -0.574235,-0.42334 -0.846667,-0.42334 -0.272432,0 -0.653432,-0.1905 -0.846667,-0.42333 -0.193234,-0.23283 -0.56487,-0.42333 -0.825861,-0.42333 -0.593324,0 -2.278583,-1.70644 -2.278583,-2.30722 0,-0.24524 -0.1905,-0.60399 -0.423333,-0.79723 -0.232834,-0.19323 -0.423334,-0.58229 -0.423334,-0.86457 0,-0.28227 -0.127,-0.59172 -0.282222,-0.68765 -0.155699,-0.0962 -0.282222,-1.36146 -0.282222,-2.82222 0,-1.46077 0.126523,-2.726 0.282222,-2.82223 0.155222,-0.0959 0.282222,-0.40538 0.282222,-0.68765 0,-0.28228 0.1905,-0.67133 0.423334,-0.86457 0.232833,-0.19323 0.423333,-0.56487 0.423333,-0.82586 0,-0.52865 1.678618,-2.27858 2.185724,-2.27858 0.178426,0 0.921546,-0.3175 1.651375,-0.70556 1.108323,-0.5893 1.712846,-0.70556 3.668889,-0.70556 1.956046,0 2.560566,0.11626 3.668889,0.70556 0.729832,0.38806 1.47364,0.70556 1.652905,0.70556 0.46357,0 2.03143,1.71392 2.258991,2.46944 0.105196,0.34925 0.309705,0.635 0.454468,0.635 0.144761,0 0.263204,0.23845 0.263204,0.52989 0,0.29144 0.1905,0.68799 0.423333,0.88122 0.320494,0.26599 0.423333,0.98586 0.423333,2.96334 0,1.97747 -0.102839,2.69734 -0.423333,2.96333 -0.232833,0.19323 -0.423333,0.58978 -0.423333,0.88122 0,0.29144 -0.124582,0.52989 -0.276846,0.52989 -0.152265,0 -0.357872,0.32284 -0.456907,0.71742 -0.231518,0.92245 -1.577492,2.26842 -2.499938,2.49994 -0.394581,0.099 -0.71742,0.30464 -0.71742,0.45691 0,0.15226 -0.321485,0.27684 -0.714412,0.27684 -0.39293,0 -0.787516,0.1905 -0.876862,0.42334 -0.127313,0.33176 -0.697825,0.42333 -2.637697,0.42333 -1.855924,0 -2.563156,-0.10592 -2.826585,-0.42333 z m 105.822675,-8.59631 c -0.53742,-0.45936 -1.17293,-0.84036 -1.41225,-0.84667 -0.7273,-0.0192 -2.81042,-2.34895 -2.81042,-3.14321 0,-0.39132 -0.18646,-0.95801 -0.41436,-1.25932 -0.59101,-0.78139 -0.59792,-5.36143 -0.009,-5.95037 0.23284,-0.23283 0.42334,-0.78032 0.42334,-1.21664 0,-0.8499 1.97432,-3.11749 2.71431,-3.11749 0.21457,0 0.6231,-0.22225 0.90785,-0.49389 1.65997,-1.58358 6.43724,-1.78376 8.54148,-0.35791 0.68305,0.46284 1.38987,0.84384 1.5707,0.84667 0.632,0.01 2.63455,2.59195 2.63455,3.39698 0,0.42481 0.1905,0.93047 0.42333,1.12371 0.31731,0.26334 0.42333,0.97017 0.42333,2.82222 0,1.85205 -0.10602,2.55888 -0.42333,2.82222 -0.23283,0.19324 -0.42333,0.69891 -0.42333,1.12371 0,0.92307 -2.04648,3.39185 -2.81165,3.39185 -0.27825,0 -0.66182,0.18786 -0.85238,0.41748 -1.32056,1.59117 -6.80297,1.87598 -8.48219,0.44066 z m -35.54934,-52.3637 c -0.19324,-0.23283 -0.58229,-0.42333 -0.86457,-0.42333 -0.28227,0 -0.59172,-0.127 -0.68765,-0.28223 -0.0959,-0.15522 -0.39602,-0.28222 -0.66685,-0.28222 -0.60716,0 -2.29649,-1.69722 -2.29649,-2.30721 0,-0.24524 -0.1905,-0.604 -0.42333,-0.79723 -0.23283,-0.19324 -0.42333,-0.56439 -0.42333,-0.82478 0,-0.2604 -0.14357,-0.617011 -0.31904,-0.792477 -0.19068,-0.190687 -0.31903,-1.356682 -0.31903,-2.898302 0,-1.541619 0.12835,-2.707614 0.31903,-2.898301 0.17547,-0.175466 0.31904,-0.534046 0.31904,-0.796837 0,-0.262794 0.1905,-0.550906 0.42333,-0.640255 0.23283,-0.08935 0.42333,-0.395521 0.42333,-0.680387 0,-0.626906 1.6843,-2.321998 2.30722,-2.321998 0.24524,0 0.60399,-0.1905 0.79723,-0.423333 0.19323,-0.232834 0.57423,-0.423334 0.84666,-0.423334 0.27244,0 0.65344,-0.1905 0.84667,-0.423333 0.26038,-0.313735 0.9545,-0.423333 2.68111,-0.423333 1.72662,0 2.42074,0.109598 2.68111,0.423333 0.19324,0.232833 0.65329,0.423333 1.02234,0.423333 0.36905,0 0.671,0.118443 0.671,0.263204 0,0.144763 0.28575,0.349272 0.635,0.454468 0.89471,0.269488 2.46944,1.832452 2.46944,2.450993 0,0.284866 0.1905,0.591041 0.42334,0.680387 0.23283,0.08935 0.42333,0.377461 0.42333,0.640255 0,0.262791 0.13804,0.615848 0.30676,0.784569 0.17654,0.176536 0.30676,1.412125 0.30676,2.910569 0,1.498445 -0.13022,2.734034 -0.30676,2.91057 -0.16872,0.168721 -0.30676,0.519809 -0.30676,0.780209 0,0.26039 -0.1905,0.63154 -0.42333,0.82478 -0.23284,0.19323 -0.42334,0.56487 -0.42334,0.82586 0,0.52865 -1.67862,2.27858 -2.18572,2.27858 -0.17843,0 -0.92155,0.3175 -1.65138,0.70556 -1.62054,0.86165 -5.97,1.04749 -6.60512,0.28222 z M 196.06314,34.517716 V 19.592813 l 1.905,-0.196661 c 4.13032,-0.426392 9.25964,-1.969414 10.43474,-3.139019 0.18991,-0.189022 0.78813,-0.617364 1.32937,-0.951871 10.18522,-6.2948093 5.11113,-21.7609694 -7.88355,-24.029596 -3.81383,-0.6658215 -94.51682,-0.577342 -97.72747,0.095332 -10.280235,2.153841 -14.995019,9.928618 -11.62015,19.161863 0.785408,2.148784 4.622459,6.454197 5.752082,6.454197 0.09198,0 0.705609,0.24408 1.363613,0.5424 1.476445,0.669381 5.865185,1.623348 8.604705,1.87038 l 2.04611,0.184506 V 34.51348 49.442616 h 42.89778 42.89777 z"
           id="path348" /></g><path
         id="path503"
         style="fill:#ffffff;stroke-width:0.489009"
         d="m 112.625,67.419765 c -4.71983,0.252568 -9.07862,2.463709 -12.896934,5.093973 -5.184034,3.683382 -8.891523,9.443193 -9.77305,15.746276 -0.786087,5.404909 0.299282,11.08425 3.064515,15.805436 0.964461,1.45632 2.088387,2.80727 2.975193,4.31137 1.202421,1.27741 2.706124,2.24002 4.082136,3.32142 1.7633,1.33789 3.73576,2.48076 5.94658,2.8732 0.0377,14.27539 0.23446,28.55153 0.0889,42.82667 -0.0172,1.16351 -0.0454,2.3742 -0.10456,3.49399 -4.83004,-5.04822 -9.825439,-9.93635 -14.991789,-14.64269 -1.283623,-1.1534 -2.919279,-1.92795 -4.665721,-1.9834 -4.216832,-0.4388 -8.466513,-0.39135 -12.699552,-0.57339 -2.40702,-0.0729 -4.81404,-0.14573 -7.22106,-0.21858 -1.676093,-3.51692 -3.555726,-7.11079 -6.691407,-9.56819 -6.599742,-5.55443 -16.175961,-7.29661 -24.336932,-4.46336 -2.99176,0.9689 -5.696143,2.68832 -7.936979,4.87501 -2.995098,2.71157 -5.580975,6.03506 -6.687482,9.96485 -0.9884,2.91209 -2.053731,5.92123 -1.762731,9.04636 0.09773,2.44651 1.048745,4.73297 1.718928,7.05856 0.777098,2.53009 2.037866,4.91512 3.826902,6.88487 2.857263,3.39529 6.353411,6.46294 10.637369,7.89997 3.076701,1.03301 6.328177,1.74496 9.591706,1.60031 4.299949,-0.26294 8.564386,-1.62947 12.104438,-4.09368 3.204096,-2.21466 6.059536,-5.00314 8.131891,-8.30341 0.636385,-1.09368 1.169786,-2.25439 1.498047,-3.47741 5.417317,1e-5 10.834635,0 16.251953,0 7.572265,7.5444 15.144531,15.0888 22.716799,22.63319 0.37965,9.08765 0.59477,18.18137 0.6163,27.27694 0.15308,19.33788 -0.0927,38.67812 0.21027,58.01475 0.0817,1.22353 -0.0128,2.49146 0.27304,3.68003 0.73564,1.59568 2.09458,2.78827 3.20603,4.12111 3.18664,3.49511 6.59815,6.77511 9.90725,10.15351 5.99807,-0.11889 11.99607,-0.2418 17.99414,-0.36114 6.36054,-6.33065 12.90562,-12.48536 19.00894,-19.0627 1.17993,-1.38229 1.38877,-3.24459 1.4265,-4.98664 0.28683,-5.81373 0.18339,-11.63905 0.30426,-17.45768 0.0736,-4.55808 0.0831,-9.12881 0.37358,-13.6751 0.50551,-1.42226 1.73256,-2.42612 2.69092,-3.54908 4.98833,-5.30031 10.22936,-10.36104 15.35548,-15.52567 1.05204,-0.15653 2.20263,-0.0168 3.29226,-0.0602 4.01932,0.0228 8.07672,-0.11432 12.06881,0.25809 0.68109,0.0455 1.34802,0.3813 1.53451,1.08132 0.90161,2.41946 2.47031,4.52586 4.20297,6.42203 2.43064,2.56417 5.30039,4.76187 8.50739,6.27686 2.81282,1.18353 5.85009,1.83871 8.89166,2.05715 8.88765,0.46991 17.70334,-4.52274 22.09263,-12.17343 2.0911,-3.68212 3.27979,-7.89294 3.36923,-12.12275 -0.0332,-4.40326 -1.28957,-8.79661 -3.52805,-12.59084 -2.72719,-4.42732 -6.92061,-7.92829 -11.70624,-9.97613 -4.29297,-1.69545 -9.05356,-1.82553 -13.58702,-1.25929 -4.21969,0.59895 -8.27809,2.43432 -11.35825,5.38869 -3.0419,2.69374 -5.81739,5.87631 -7.18779,9.74964 -0.62433,0.17729 -1.46715,0.0317 -2.17562,0.0847 -6.01309,0.0293 -12.04788,-0.12988 -18.03906,0.45239 -2.69261,0.53096 -4.52801,2.75242 -6.42901,4.53056 -2.58663,2.56221 -5.06653,5.23269 -7.71357,7.73643 -0.52738,-6.31719 -0.53977,-12.71301 -0.59635,-19.07656 -0.0163,-7.31664 0.18444,-14.63319 0.56901,-21.93966 3.54748,-0.8042 6.40586,-3.27727 8.88001,-5.80828 2.95199,-3.11485 5.59639,-6.75922 6.45916,-11.03354 0.62623,-2.59099 1.46539,-5.30859 0.85809,-7.98149 -0.33511,-1.11642 -0.63437,-2.24741 -0.66662,-3.41655 -0.58889,-3.30388 -2.48335,-6.18752 -4.36922,-8.90133 -2.02066,-2.81544 -4.66377,-5.20525 -7.79002,-6.7502 -3.57612,-1.88193 -7.52774,-3.27939 -11.60614,-3.37613 -2.88216,0.0729 -5.66673,0.94849 -8.41221,1.74484 -3.22209,1.02581 -5.99523,3.03822 -8.5932,5.1343 -1.16205,0.91622 -1.96273,2.15167 -2.75644,3.3742 -1.27665,1.74844 -2.46063,3.58962 -3.13231,5.66001 -1.10799,3.01749 -2.05937,6.19794 -1.9409,9.43991 0.23435,1.97051 0.72704,3.90296 1.16294,5.83673 0.63729,2.59596 1.98302,4.93603 3.48634,7.12442 0.92218,1.37392 1.85261,2.79876 3.102,3.89393 1.6419,0.80332 2.79231,2.27271 4.36295,3.184 1.28056,0.86654 2.72697,1.44271 4.12069,2.08474 1.07835,0.88749 0.89629,2.47604 1.00391,3.68882 0.33439,9.26174 0.19689,18.53202 0.22541,27.7978 -0.0329,15.47309 -0.0377,30.94671 -0.18104,46.41921 -0.0705,4.0022 -0.0722,7.96826 -0.63855,11.93178 -0.16985,1.24163 -0.77631,2.41401 -1.81119,3.15419 -3.64411,3.37058 -7.15959,6.88207 -10.5418,10.512 -0.51138,0.531 -0.87384,1.20698 -1.42499,1.68815 -2.18757,-1.72395 -4.11177,-3.74201 -6.1582,-5.62287 -0.55204,-11.23201 -1.0165,-22.48429 -0.73635,-33.72932 0.2153,-1.03763 0.5604,-2.06463 0.49832,-3.14501 0.19386,-9.82765 -0.0964,-19.65819 -0.16376,-29.48652 -0.14203,-25.04994 -0.26422,-50.10241 0.0891,-75.15112 0.0889,-3.59283 0.16669,-7.22648 0.30688,-10.79268 2.75362,-0.50273 4.98265,-2.33693 7.18551,-3.92968 1.72379,-1.30653 3.24055,-2.89026 4.33965,-4.75385 1.78412,-2.49161 3.29377,-5.24152 3.86747,-8.275922 1.37591,-6.179738 0.38978,-12.946567 -3.02935,-18.322977 -4.09644,-6.314678 -11.10587,-10.665244 -18.59359,-11.629179 -1.27486,-0.154527 -2.56089,-0.203757 -3.84391,-0.141037 z m 1.59766,16.909364 c 3.41965,-0.0544 6.92553,2.422148 7.39009,5.903642 0.47079,2.795632 -0.27077,6.010097 -2.55806,7.850626 -1.73557,1.169603 -3.94015,1.477047 -5.9961,1.364942 -1.68353,-0.19794 -3.36878,-0.882453 -4.60588,-2.050654 -0.99547,-1.176575 -1.53989,-2.700838 -1.79308,-4.204809 -0.44042,-2.854156 0.53605,-6.190528 3.18803,-7.681315 1.312,-0.785633 2.84568,-1.186592 4.375,-1.182432 z m 36.85156,52.234761 c 2.8403,0.15421 5.64275,1.97044 6.70117,4.63071 0.74183,2.15512 0.60217,4.58968 -0.21441,6.70252 -1.36521,3.06834 -5.11229,4.51053 -8.30663,3.88789 -1.95761,-0.39326 -3.89413,-1.40137 -5.07611,-3.03306 -1.14805,-1.79888 -0.82554,-4.02337 -0.73533,-6.03682 0.14783,-1.50585 0.47165,-3.19946 1.84784,-4.08891 1.70155,-1.12126 3.69317,-2.0977 5.78347,-2.06233 z m -107.642579,8.2848 c 3.303025,-0.0462 6.734133,2.02136 7.740234,5.23065 0.290276,1.6076 0.192534,3.3025 -0.228516,4.87925 -0.919164,3.04299 -4.058531,5.01207 -7.171111,5.07308 -2.809273,0.15149 -5.86933,-1.3418 -6.836767,-4.09301 -0.875262,-2.30142 -0.885168,-4.9364 -0.07524,-7.25592 0.951197,-2.62236 3.959349,-3.81182 6.571401,-3.83405 z m 172.999999,51.20183 c 2.02839,0.12835 3.9004,1.17656 5.45313,2.41924 2.12249,2.04815 2.49436,5.33143 1.69701,8.02965 -0.60416,2.08303 -2.26394,3.92167 -4.46302,4.33813 -2.16454,0.54731 -4.57658,0.77867 -6.68321,-0.095 -1.76081,-0.95004 -2.80298,-2.79696 -3.5329,-4.58085 -0.80102,-2.37145 -0.10187,-5.09775 1.33619,-6.98919 1.24939,-1.75796 3.29212,-2.81162 5.42096,-3.05468 0.25472,-0.0485 0.51303,-0.0629 0.77184,-0.0674 z" /></g></g><g
     inkscape:groupmode="layer"
     id="layer3"
     inkscape:label="Letters"><path
       d="m 1406.9441,265.79332 c 32.5349,0 61.2422,-25.153 61.2422,-69.44415 v -4.37443 c 0,-44.29116 -28.4339,-69.44415 -61.2422,-69.44415 -24.6061,0 -36.3624,9.84248 -42.1039,19.41156 h -4.9212 V 70.584229 h -34.4487 V 261.96569 h 33.9019 v -16.40413 h 4.9212 c 6.2883,10.38928 18.0446,20.23176 42.6507,20.23176 z m -10.3892,-30.07424 c -21.052,0 -37.1827,-13.94351 -37.1827,-40.19012 v -2.73402 c 0,-26.2466 15.8573,-40.19012 37.1827,-40.19012 21.3254,0 37.1827,13.94352 37.1827,40.19012 v 2.73402 c 0,26.24661 -16.1308,40.19012 -37.1827,40.19012 z"
       style="font-weight:bold;font-size:195.356px;line-height:1.25;font-family:'Space Grotesk';-inkscape-font-specification:'Space Grotesk Bold';white-space:pre;fill:#19647d;stroke-width:1.39951;fill-opacity:1"
       id="path69556"
       inkscape:label="letter b" /><path
       d="m 1222.7773,265.79332 c 28.4338,0 36.9092,-15.31052 39.3699,-22.14557 h 5.1946 v 0.2734 c 0,10.93609 9.8425,18.04454 23.2393,18.04454 h 22.9658 v -28.43382 h -10.9362 c -4.9212,0 -7.6552,-2.73403 -7.6552,-8.20207 v -50.57939 c 0,-33.90188 -22.419,-52.21982 -57.9613,-52.21982 -35.2688,0 -53.04,17.77114 -59.6016,38.2763 l 31.7146,10.66268 c 2.4606,-12.3031 10.1158,-21.05197 27.3402,-21.05197 17.4978,0 25.153,9.29569 25.153,21.87218 v 7.65526 h -37.1827 c -30.6211,0 -52.4931,14.49032 -52.4931,42.37734 0,27.88702 21.872,43.47094 50.8527,43.47094 z m 6.0148,-27.88702 c -14.7636,0 -22.419,-6.83505 -22.419,-16.67753 0,-9.84248 7.6554,-15.58392 20.5052,-15.58392 h 34.7221 v 2.73402 c 0,18.04454 -13.6701,29.52743 -32.8083,29.52743 z"
       style="font-weight:bold;font-size:195.356px;line-height:1.25;font-family:'Space Grotesk';-inkscape-font-specification:'Space Grotesk Bold';white-space:pre;fill:#19647d;stroke-width:1.39951;fill-opacity:1"
       id="path69554"
       inkscape:label="letter a" /><path
       id="path69552"
       style="font-weight:bold;font-size:195.356px;line-height:1.25;font-family:'Space Grotesk';-inkscape-font-specification:'Space Grotesk Bold';white-space:pre;fill:#19647d;stroke-width:5.28949;fill-opacity:1"
       inkscape:label="letter L"
       d="M 3924.1895 266.77539 L 3924.1895 780.52148 C 3928.4917 786.61644 3930.8203 790.17969 3930.8203 790.17969 C 3941.7654 805.70519 3952.5541 822.28088 3962.3691 839.41602 C 3974.6265 860.81566 3985.4818 883.29191 3993.2109 905.80273 C 3997.512 918.32922 4000.8845 930.99533 4002.9844 943.55273 C 4005.611 959.25805 4006.2755 974.91377 4004.2656 990.10742 L 4391.2559 990.10742 L 4391.2559 866.10742 L 4060.5898 866.10742 L 4060.5898 266.77539 L 3924.1895 266.77539 z "
       transform="scale(0.26458333)" /><path
       id="path69550"
       style="font-weight:bold;font-size:195.356px;line-height:1.25;font-family:'Space Grotesk';-inkscape-font-specification:'Space Grotesk Bold';white-space:pre;fill:#19647d;stroke-width:5.28949;fill-opacity:1"
       inkscape:label="letter m"
       d="M 2268.7949 469.30859 C 2200.595 469.30859 2160.2949 499.27504 2142.7285 533.375 L 2124.1289 533.375 L 2124.1289 477.57422 L 1995.9961 477.57422 L 1995.9961 990.10742 L 2126.1953 990.10742 L 2126.1953 687.3418 C 2126.1953 617.07524 2159.2624 577.80859 2219.1953 577.80859 C 2270.8619 577.80859 2301.8613 606.74109 2301.8613 662.54102 L 2301.8613 990.10742 L 2432.0605 990.10742 L 2432.0605 687.3418 C 2432.0605 617.07524 2465.1271 577.80859 2525.0605 577.80859 C 2576.7271 577.80859 2607.7266 606.74109 2607.7266 662.54102 L 2607.7266 990.10742 L 2657.7148 990.10742 C 2655.8322 975.16043 2656.5087 959.778 2659.0898 944.34375 C 2661.1899 931.78638 2664.5622 919.11829 2668.8633 906.5918 C 2676.5926 884.08097 2687.4474 861.60668 2699.7051 840.20703 C 2709.5201 823.0719 2720.3109 806.49426 2731.2559 790.96875 C 2731.2559 790.96875 2733.6032 787.37898 2737.9277 781.25391 L 2737.9277 653.24219 C 2737.9277 529.24246 2661.4613 469.30859 2566.3945 469.30859 C 2487.8617 469.30859 2448.595 502.37549 2425.8613 545.77539 L 2407.2617 545.77539 C 2383.4951 500.30885 2342.1615 469.30859 2268.7949 469.30859 z "
       transform="scale(0.26458333)" /><path
       d="m 435.17693,264.15291 c 24.33282,0 35.26899,-10.66269 39.64343,-19.95836 h 4.92123 v 17.77114 h 33.9018 V 126.35821 H 479.1948 v 68.89735 c 0,25.153 -12.30321,39.91672 -33.35516,39.91672 -18.59134,0 -28.98058,-10.11588 -28.98058,-30.62104 v -78.19303 h -34.44874 v 80.92705 c 0,33.62846 21.05195,56.86765 52.76661,56.86765 z"
       style="font-weight:bold;font-size:195.356px;line-height:1.25;font-family:'Space Grotesk';-inkscape-font-specification:'Space Grotesk Bold';white-space:pre;fill:#19647d;stroke-width:1.39951;fill-opacity:1"
       id="path69548"
       inkscape:label="letter u" /><path
       d="m 273.75503,261.96569 h 54.68043 l 43.19762,-135.60748 h -36.63589 l -31.44133,110.45448 h -4.92123 L 267.19344,126.35821 h -36.63589 z"
       style="font-weight:bold;font-size:195.356px;line-height:1.25;font-family:'Space Grotesk';-inkscape-font-specification:'Space Grotesk Bold';white-space:pre;fill:#19647d;stroke-width:1.39951;fill-opacity:1"
       id="path69546"
       inkscape:label="letter v" /><path
       d="m 199.34547,110.50088 c 12.57653,0 22.14553,-8.74886 22.14553,-21.872171 0,-13.123257 -9.569,-21.872089 -22.14553,-21.872089 -12.57653,0 -22.14552,8.748832 -22.14552,21.872089 0,13.123311 9.56899,21.872171 22.14552,21.872171 z m -17.2243,151.46481 h 34.4486 V 126.35821 h -34.4486 z"
       style="font-weight:bold;font-size:195.356px;line-height:1.25;font-family:'Space Grotesk';-inkscape-font-specification:'Space Grotesk Bold';white-space:pre;fill:#19647d;stroke-width:1.39951;fill-opacity:1"
       id="path69544"
       inkscape:label="letter i" /><path
       d="m 56.60313,261.96569 h 61.78895 L 167.05757,70.584229 H 129.8749 L 89.41136,238.72651 H 85.58371 L 45.12031,70.584229 H 7.9375 Z"
       style="font-weight:bold;font-size:195.356px;line-height:1.25;font-family:'Space Grotesk';-inkscape-font-specification:'Space Grotesk Bold';white-space:pre;fill:#19647d;stroke-width:1.39951;fill-opacity:1"
       id="path69542"
       inkscape:label="letter V" /></g></svg>
