<?xml version="1.0" encoding="UTF-8" standalone="no"?>
<!-- Created with Inkscape (http://www.inkscape.org/) -->

<svg
   width="1350"
   height="1350"
   viewBox="0 0 357.18751 357.18746"
   version="1.1"
   id="svg5"
   inkscape:version="1.1.1 (3bf5ae0d25, 2021-09-20, custom)"
   sodipodi:docname="vivumlab_flask.svg"
   inkscape:export-filename="/home/voryzen/Downloads/generatotr.png"
   inkscape:export-xdpi="18.48889"
   inkscape:export-ydpi="18.48889"
   xmlns:inkscape="http://www.inkscape.org/namespaces/inkscape"
   xmlns:sodipodi="http://sodipodi.sourceforge.net/DTD/sodipodi-0.dtd"
   xmlns="http://www.w3.org/2000/svg"
   xmlns:svg="http://www.w3.org/2000/svg">
  <sodipodi:namedview
     id="namedview7"
     pagecolor="#000000"
     bordercolor="#666666"
     borderopacity="1.0"
     inkscape:pageshadow="2"
     inkscape:pageopacity="0"
     inkscape:pagecheckerboard="true"
     inkscape:document-units="mm"
     showgrid="false"
     showborder="true"
     inkscape:snap-others="false"
     inkscape:snap-to-guides="false"
     inkscape:snap-grids="false"
     inkscape:snap-nodes="true"
     inkscape:snap-global="false"
     inkscape:object-paths="true"
     inkscape:snap-intersection-paths="true"
     inkscape:zoom="0.21052029"
     inkscape:cx="413.26182"
     inkscape:cy="684.01957"
     inkscape:window-width="1920"
     inkscape:window-height="1007"
     inkscape:window-x="0"
     inkscape:window-y="0"
     inkscape:window-maximized="1"
     inkscape:current-layer="svg5"
     units="px"
     height="17px"
     width="1400px">
    <inkscape:grid
       type="xygrid"
       id="grid208126" />
  </sodipodi:namedview>
  <defs
     id="defs2" />
  <g
     id="g208247"
     inkscape:label="symbol"
     inkscape:export-filename="/home/voryzen/Downloads/vivumlab_flask_32icon.png"
     inkscape:export-xdpi="2.2755556"
     inkscape:export-ydpi="2.2755556">
    <path
       id="path26290"
       style="display:inline;fill:#3214c8;fill-opacity:1;stroke:#000000;stroke-width:0.336013;stroke-miterlimit:4;stroke-dasharray:none;stroke-opacity:0"
       d="m 143.07106,160.67319 c -8.26265,-8e-5 -14.96089,6.42237 -14.96084,14.34486 0.005,7.3122 5.74629,13.45019 13.32683,14.24875 l -2.98741,46.8783 c -0.86207,0.16138 -1.69477,0.44283 -2.4753,0.83664 -4.75518,2.41456 -6.5686,8.39228 -4.0504,13.35164 2.51817,4.95945 8.41448,7.02252 13.16974,4.60799 2.10671,-1.07011 3.73109,-2.90869 4.56561,-5.16764 17.98856,1.09799 35.97714,2.19638 53.9657,3.29437 1.37088,6.7316 7.51979,11.59091 14.673,11.59567 8.26246,-1.9e-4 14.96038,-6.42256 14.96033,-14.34486 -3.9e-4,-7.66095 -6.27899,-13.96958 -14.26011,-14.32832 0.56924,-13.63951 1.13866,-27.27899 1.7079,-40.91847 1.68087,0.17233 3.36088,-0.12351 4.85087,-0.85421 4.41672,-2.17309 6.10105,-7.55297 3.76205,-12.01632 -2.33916,-4.46317 -7.8157,-6.31961 -12.23233,-4.14651 -2.49238,1.22838 -4.22557,3.56121 -4.68706,6.30865 -18.13637,-2.76608 -36.27271,-5.53263 -54.40908,-8.29871 0.0269,-0.3484 0.0405,-0.69762 0.0408,-1.04697 5e-5,-7.9223 -6.69787,-14.34467 -14.96033,-14.34486 z m 14.303,18.5477 c 18.35271,2.76573 36.70544,5.53094 55.05814,8.29666 0.16895,0.88644 0.46977,1.74727 0.89245,2.55385 0.0791,0.14714 0.16214,0.29223 0.24908,0.43511 -10.85366,7.97696 -21.70714,15.95389 -32.5608,23.93084 -9.47881,-9.45028 -18.95769,-18.90045 -28.43651,-28.35072 2.26703,-1.78776 3.9355,-4.17544 4.79764,-6.86574 z m -7.63054,8.62945 c 9.55917,9.49725 19.11815,18.99456 28.67732,28.4918 -10.33608,7.59656 -20.67185,15.1933 -31.00793,22.78986 -1.5396,-1.62477 -3.54772,-2.69341 -5.70507,-3.03599 0.9611,-15.60564 1.92244,-31.2112 2.88354,-46.81681 1.79313,-0.17483 3.53855,-0.65889 5.15214,-1.42886 z m 65.84094,5.03277 c 0.61939,0.52647 1.30372,0.97117 2.03502,1.3224 -0.61823,13.99449 -1.23644,27.98899 -1.85467,41.98352 -3.26286,0.53647 -6.24799,2.09547 -8.48785,4.4328 -7.99605,-7.97199 -15.99215,-15.94391 -23.9882,-23.91588 10.76523,-7.94092 21.53047,-15.88192 32.2957,-23.82284 z m -34.87952,25.72866 c 8.21994,8.16669 16.44005,16.33314 24.65999,24.49983 -1.25095,2.0691 -1.94251,4.40527 -2.01176,6.79597 -17.69339,-1.11428 -35.38658,-2.22866 -53.07996,-3.34295 0.0424,-1.63292 -0.30772,-3.26514 -1.01958,-4.7532 10.48371,-7.73325 20.9676,-15.46639 31.45131,-23.19965 z"
       sodipodi:nodetypes="cccccccccccccccccccccccccccccccccccccccccccccc"
       inkscape:label="symbol" />
  </g>
  <g
     id="g196815"
     style="display:inline"
     inkscape:label="flask"
     transform="translate(0.52916667,22.225007)">
    <path
       style="fill:#ffffff;fill-opacity:0.1;stroke:none;stroke-width:0.264583px;stroke-linecap:butt;stroke-linejoin:miter;stroke-opacity:1"
       d="m 223.55341,109.28609 0.55616,-64.375412 c 13.68216,-6.252611 11.28998,-28.013773 -5.21481,-31.468726 l 21.63845,-2.6253 13.66003,11.9619 -5.85511,23.892057 -15.08731,3.795345 0.23111,52.319236 76.92062,88.05817 18.54139,46.17172 -19.50084,37.62139 -92.82574,12.34363 c 59.89628,-69.79664 6.93605,-177.69401 6.93605,-177.69401 z"
       id="path202790"
       sodipodi:nodetypes="ccccccccccccc"
       inkscape:label="right_shading" />
    <path
       style="fill:#3214c8;fill-opacity:0.3;stroke:none;stroke-width:0.264583px;stroke-linecap:butt;stroke-linejoin:miter;stroke-opacity:1"
       d="m 130.27028,13.875313 c -10.60487,4.76545 -24.2965,19.19372 0.42685,31.4234 l -18.92632,0.640953 -7.38678,-16.400223 2.10592,-10.53193 12.42604,-7.68571 12.09732,-0.74908 z"
       id="path124922"
       sodipodi:nodetypes="cccccccc"
       inkscape:label="left_upper_blue" />
    <path
       style="fill:#3214c8;fill-opacity:0.3;stroke:none;stroke-width:0.264583px;stroke-linecap:butt;stroke-linejoin:miter;stroke-opacity:1"
       d="m 130.69713,109.09958 c -74.016915,86.67409 -107.569135,158.32758 0,177.59653 l -66.080587,-11.56282 -34.532668,-15.06158 -5.75268,-19.53267 7.50047,-27.35459 22.40064,-30.48542 68.449555,-74.55405 z"
       id="path111655"
       sodipodi:nodetypes="ccccccccc"
       inkscape:label="left_lower_blue" />
    <path
       id="path7108"
       style="display:inline;fill:#3214c8;fill-opacity:1;stroke:#000000;stroke-width:0.264583px;stroke-linecap:butt;stroke-linejoin:miter;stroke-opacity:0"
       d="m 118.6126,4.871725 c -13.48086,0 -24.333367,10.853055 -24.333367,24.333914 0,13.480857 10.852507,24.333398 24.333367,24.333398 h 0.53071 v 48.242643 l -72.547442,78.28101 c 0,0 -90.003111,88.75672 -8.374682,106.26018 81.628364,17.50346 140.998564,15.02285 140.998564,15.02285 0,0 57.50054,2.48061 139.12897,-15.02285 81.62843,-17.50346 -8.3752,-106.26018 -8.3752,-106.26018 L 237.42601,101.78168 V 53.539037 h 0.53124 c 13.48085,0 24.33339,-10.852541 24.33339,-24.333398 0,-13.480859 -10.85254,-24.333914 -24.33339,-24.333914 z m 11.65768,9.003583 h 96.02928 c 10.84726,0 20.51709,4.64081 20.51709,15.198039 0,10.557201 -9.66983,16.225367 -20.51709,16.225367 h -0.42736 v 63.800866 l 58.37473,61.30375 c 0,0 72.42075,78.99544 6.73912,92.70287 -65.68165,13.70741 -111.94872,11.76465 -111.94872,11.76465 0,0 -47.77189,1.94276 -113.453473,-11.76465 -65.68160191,-13.70743 6.738607,-92.70287 6.738607,-92.70287 L 130.69713,109.09958 V 45.298714 h -0.42685 c -8.74129,0 -20.76936,-2.853534 -20.6251,-16.201596 0.1141,-10.556629 9.77784,-15.22181 20.6251,-15.22181 z"
       sodipodi:nodetypes="ssscccscscccsssssssscccscscccsss"
       inkscape:label="outline" />
  </g>
</svg>
